:FULLY-SPECIFIED
:DEGREES
1798
root 4.83094 16.4786 -1.71785 -54.5592 -86.3352 71.8294
lowerback -7.00216 -0.326426 -2.08541
upperback -4.59794 -0.469873 -1.88219
thorax -0.819648 -0.281099 -0.794312
lowerneck -15.1571 -1.87125 1.46971
upperneck 20.3499 -3.32761 0.744176
head 8.8618 -1.44294 -0.402317
rclavicle 7.95139e-015 9.93923e-015
rhumerus -30.1726 0.203781 -85.4029
rradius 38.7741
rwrist 14.0901
rhand -26.1898 -5.52259
rfingers 7.12502
rthumb 0.362422 -35.502
lclavicle 7.95139e-015 9.93923e-015
lhumerus -41.8968 -2.3467 84.6157
lradius 31.0586
lwrist -10.8786
lhand -35.4197 -1.34494
lfingers 7.12502
lthumb -8.54985 28.462
rfemur -21.5413 -1.66884 19.452
rtibia 49.8917
rfoot -5.85945 -4.86743
rtoes -24.7759
lfemur -34.016 -15.0642 -23.039
ltibia 18.6324
lfoot -5.00883 17.0278
ltoes -8.59821
1799
root 4.82655 16.481 -1.68908 -55.4438 -86.1968 72.4688
lowerback -6.69183 -0.455598 -2.30728
upperback -4.54891 -0.634859 -1.79092
thorax -0.937527 -0.355031 -0.583228
lowerneck -15.1702 -1.81279 1.48318
upperneck 20.2519 -3.20585 0.579012
head 8.82736 -1.40225 -0.444933
rclavicle -1.68967e-015 -9.34288e-015
rhumerus -30.575 -0.145996 -85.2631
rradius 38.5849
rwrist 14.2987
rhand -25.9398 -5.66891
rfingers 7.12502
rthumb 0.603891 -35.6478
lclavicle -1.68967e-015 -9.34288e-015
lhumerus -41.6799 -2.71578 85.0249
lradius 31.3052
lwrist -10.6712
lhand -35.3373 -1.46637
lfingers 7.12502
lthumb -8.47027 28.3438
rfemur -23.2701 -2.31273 18.9735
rtibia 53.3287
rfoot -3.69293 -3.80292
rtoes -21.397
lfemur -33.2782 -14.6466 -23.7608
ltibia 18.8831
lfoot -4.99755 16.3952
ltoes -6.81698
1800
root 4.83051 16.4739 -1.66105 -58.1354 -86.0412 74.9552
lowerback -6.37211 -0.555644 -2.64642
upperback -4.49746 -0.756786 -1.67883
thorax -1.05581 -0.40428 -0.28163
lowerneck -15.1398 -1.77691 1.35926
upperneck 20.0499 -3.08387 0.449801
head 8.75246 -1.36838 -0.450956
rclavicle -1.5704e-014 -1.41137e-014
rhumerus -30.9484 -0.369559 -85.0377
rradius 38.4347
rwrist 14.6098
rhand -25.7858 -5.43332
rfingers 7.12502
rthumb 0.752618 -35.4117
lclavicle -1.5704e-014 -1.41137e-014
lhumerus -41.4332 -3.30674 85.6193
lradius 31.6344
lwrist -10.2654
lhand -35.4448 -1.52135
lfingers 7.12502
lthumb -8.57401 28.2846
rfemur -25.1338 -2.76969 18.4532
rtibia 56.6913
rfoot -1.97981 -2.71114
rtoes -19.1069
lfemur -32.6665 -14.5358 -24.348
ltibia 19.1251
lfoot -4.80783 16.0503
ltoes -5.19959
1801
root 4.82906 16.4683 -1.63506 -61.9908 -85.8775 78.5254
lowerback -6.08566 -0.606712 -2.92655
upperback -4.41247 -0.816394 -1.66516
thorax -1.12291 -0.425569 -0.111038
lowerneck -15.02 -1.72242 1.41656
upperneck 19.8329 -2.97385 0.285758
head 8.65319 -1.33112 -0.499016
rclavicle 6.99474e-015 -1.42131e-014
rhumerus -31.3253 -0.592728 -84.9788
rradius 38.3009
rwrist 14.2082
rhand -25.7026 -5.48132
rfingers 7.12502
rthumb 0.832991 -35.4594
lclavicle 6.99474e-015 -1.42131e-014
lhumerus -41.1846 -3.93127 86.0294
lradius 32.0763
lwrist -9.89032
lhand -35.3597 -1.57053
lfingers 7.12502
lthumb -8.49189 28.2387
rfemur -26.8332 -2.9743 17.8798
rtibia 59.8168
rfoot -1.42577 -2.35773
rtoes -19.9509
lfemur -31.9008 -14.3475 -25.0067
ltibia 19.3457
lfoot -4.63457 15.7853
ltoes -4.00983
1802
root 4.82943 16.4573 -1.61096 -64.1643 -85.5888 80.3878
lowerback -5.84327 -0.701082 -3.28565
upperback -4.26471 -0.926186 -1.66136
thorax -1.09836 -0.471334 0.0903569
lowerneck -15.0134 -1.68953 1.35173
upperneck 19.7105 -2.89292 0.227264
head 8.61062 -1.30395 -0.497071
rclavicle 2.98177e-016 3.20043e-014
rhumerus -31.5856 -0.707124 -84.935
rradius 38.1323
rwrist 13.9329
rhand -25.8035 -5.46797
rfingers 7.12502
rthumb 0.735494 -35.4464
lclavicle 2.98177e-016 3.20043e-014
lhumerus -40.8187 -4.77297 86.5401
lradius 32.5178
lwrist -9.36314
lhand -35.5108 -1.57784
lfingers 7.12502
lthumb -8.63775 28.2254
rfemur -28.3753 -3.2869 17.2824
rtibia 62.6961
rfoot -1.8683 -2.61896
rtoes -20.9379
lfemur -31.1378 -14.2186 -25.7595
ltibia 19.6105
lfoot -4.83993 15.5519
ltoes -3.55404
1803
root 4.82428 16.4499 -1.58718 -66.225 -85.348 82.0538
lowerback -5.60609 -0.784361 -3.5384
upperback -4.07483 -1.02427 -1.68537
thorax -1.02842 -0.514725 0.204215
lowerneck -14.9789 -1.6271 1.36251
upperneck 19.6078 -2.78479 0.140761
head 8.56845 -1.26159 -0.513841
rclavicle -8.44835e-015 -2.79292e-014
rhumerus -31.8133 -1.01593 -84.8869
rradius 37.8137
rwrist 14.2446
rhand -25.7817 -5.52173
rfingers 7.12502
rthumb 0.756627 -35.5001
lclavicle -8.44835e-015 -2.79292e-014
lhumerus -40.4247 -5.68065 86.9923
lradius 32.9959
lwrist -8.77886
lhand -35.7114 -1.4732
lfingers 7.12502
lthumb -8.83129 28.322
rfemur -29.7441 -3.41351 16.7502
rtibia 65.2539
rfoot -2.66703 -3.07394
rtoes -19.2921
lfemur -30.2466 -14.0864 -26.4519
ltibia 19.8983
lfoot -5.31156 15.5666
ltoes -3.57325
1804
root 4.82089 16.4413 -1.56083 -68.879 -85.285 84.6084
lowerback -5.68508 -0.847662 -3.55991
upperback -3.95598 -1.09637 -1.68851
thorax -0.859294 -0.552429 0.207246
lowerneck -15.0525 -1.52707 1.38833
upperneck 19.631 -2.64048 0.0800932
head 8.58935 -1.19735 -0.522746
rclavicle 7.85199e-015 -1.96797e-014
rhumerus -31.9889 -1.23819 -84.8625
rradius 37.3344
rwrist 14.6605
rhand -25.8579 -5.56073
rfingers 7.12502
rthumb 0.682973 -35.5394
lclavicle 7.85199e-015 -1.96797e-014
lhumerus -39.9029 -6.52617 87.3015
lradius 33.3545
lwrist -8.32972
lhand -35.7631 -1.35391
lfingers 7.12502
lthumb -8.88118 28.4392
rfemur -31.4482 -3.50346 16.4158
rtibia 67.4825
rfoot -3.15387 -3.42276
rtoes -18.6429
lfemur -29.7105 -13.8697 -26.9145
ltibia 20.2365
lfoot -5.67485 15.6613
ltoes -4.49225
1805
root 4.82086 16.435 -1.53932 -70.8221 -85.2893 86.5437
lowerback -5.77984 -0.895559 -3.53059
upperback -3.92882 -1.1554 -1.67013
thorax -0.776913 -0.58358 0.204908
lowerneck -15.0511 -1.43218 1.48489
upperneck 19.7118 -2.51018 -0.0402184
head 8.61439 -1.14178 -0.564883
rclavicle 8.15017e-015 -4.87022e-015
rhumerus -32.2384 -1.54125 -84.8585
rradius 36.9595
rwrist 14.6832
rhand -25.8444 -5.61312
rfingers 7.12502
rthumb 0.696051 -35.5917
lclavicle 8.15017e-015 -4.87022e-015
lhumerus -39.3854 -7.20057 87.4936
lradius 33.5368
lwrist -8.41465
lhand -35.9354 -1.4857
lfingers 7.12502
lthumb -9.04744 28.3003
rfemur -33.2361 -3.5335 16.2245
rtibia 69.3728
rfoot -3.58218 -3.78326
rtoes -18.5293
lfemur -29.3063 -13.593 -27.2471
ltibia 20.5787
lfoot -6.24009 15.6889
ltoes -4.55431
1806
root 4.81735 16.4315 -1.51799 -72.0671 -85.3418 87.712
lowerback -5.81747 -0.953356 -3.4292
upperback -3.91116 -1.23372 -1.64472
thorax -0.736533 -0.624745 0.169485
lowerneck -14.9984 -1.3299 1.61369
upperneck 19.8392 -2.38598 -0.133428
head 8.64637 -1.08466 -0.604033
rclavicle -1.19271e-015 2.78299e-015
rhumerus -32.5981 -1.89946 -84.8228
rradius 36.5396
rwrist 14.9544
rhand -25.9614 -5.60335
rfingers 7.12502
rthumb 0.583024 -35.5823
lclavicle -1.19271e-015 2.78299e-015
lhumerus -38.8811 -7.9553 87.6748
lradius 33.7406
lwrist -8.1952
lhand -35.9144 -1.36645
lfingers 7.12502
lthumb -9.02719 28.4204
rfemur -34.8003 -3.54335 16.1411
rtibia 70.9142
rfoot -4.38063 -4.35073
rtoes -17.9677
lfemur -28.8536 -13.4603 -27.4741
ltibia 20.9745
lfoot -6.85947 15.8331
ltoes -4.78239
1807
root 4.81564 16.4299 -1.49776 -72.7861 -85.4155 88.4454
lowerback -5.92462 -1.03123 -3.34422
upperback -3.93239 -1.33709 -1.56052
thorax -0.695631 -0.677615 0.201203
lowerneck -14.9296 -1.24493 1.60716
upperneck 20.0022 -2.27052 -0.153454
head 8.69027 -1.03441 -0.597376
rclavicle 2.34566e-014 1.96797e-014
rhumerus -32.9206 -2.1051 -84.7317
rradius 36.0747
rwrist 14.9723
rhand -26.0023 -5.86102
rfingers 7.12502
rthumb 0.54351 -35.8401
lclavicle 2.34566e-014 1.96797e-014
lhumerus -38.3604 -8.55397 87.8621
lradius 33.8933
lwrist -8.31546
lhand -36.055 -1.20005
lfingers 7.12502
lthumb -9.16291 28.5809
rfemur -36.4215 -3.577 16.1251
rtibia 72.1188
rfoot -5.10501 -4.75431
rtoes -16.9061
lfemur -28.507 -13.3924 -27.6259
ltibia 21.3606
lfoot -7.4219 16.0149
ltoes -5.32229
1808
root 4.8163 16.4253 -1.48174 -73.8353 -85.5031 89.5355
lowerback -5.99363 -1.08095 -3.32039
upperback -3.9916 -1.40423 -1.45205
thorax -0.714396 -0.71026 0.294965
lowerneck -14.8131 -1.17954 1.56489
upperneck 20.1324 -2.18328 -0.123415
head 8.71516 -0.995391 -0.570424
rclavicle -1.11319e-014 -2.16178e-014
rhumerus -33.3921 -2.62881 -84.4638
rradius 35.5664
rwrist 15.7737
rhand -26.2768 -5.63635
rfingers 7.12502
rthumb 0.278443 -35.6159
lclavicle -1.11319e-014 -2.16178e-014
lhumerus -37.823 -8.82641 87.9229
lradius 33.9978
lwrist -8.55136
lhand -35.9534 -1.20687
lfingers 7.12502
lthumb -9.06481 28.5783
rfemur -38.0141 -3.42847 16.1487
rtibia 73.0104
rfoot -5.84275 -5.21114
rtoes -16.3728
lfemur -28.1881 -13.3518 -27.7243
ltibia 21.7414
lfoot -8.05425 16.2295
ltoes -5.39001
